<?xml version="1.0" standalone="no"?>
<!DOCTYPE svg PUBLIC "-//W3C//DTD SVG 20010904//EN"
 "http://www.w3.org/TR/2001/REC-SVG-20010904/DTD/svg10.dtd">
<svg version="1.0" xmlns="http://www.w3.org/2000/svg"
 width="512.000000pt" height="512.000000pt" viewBox="0 0 512.000000 512.000000"
 preserveAspectRatio="xMidYMid meet">
<metadata>
Created by potrace 1.14, written by Peter Selinger 2001-2017
</metadata>
<g transform="translate(0.000000,512.000000) scale(0.100000,-0.100000)"
fill="#000000" stroke="none">
<path d="M1918 4455 c-2 -2 -37 -6 -79 -9 -71 -5 -204 -22 -259 -32 -14 -2
-41 -7 -60 -10 -79 -12 -326 -77 -422 -110 -607 -211 -1005 -586 -1087 -1024
-10 -52 -8 -517 2 -585 3 -16 8 -57 11 -90 4 -33 9 -71 11 -85 2 -14 7 -45 10
-70 4 -25 10 -63 15 -85 5 -22 12 -56 15 -75 41 -239 182 -593 318 -795 145
-218 287 -362 492 -497 192 -128 504 -251 690 -274 17 -2 36 -6 43 -9 8 -3 37
-8 65 -11 29 -3 58 -7 65 -9 76 -25 659 -25 752 0 8 2 35 6 61 9 25 3 52 7 60
10 7 3 31 8 53 11 21 3 41 7 45 9 3 2 22 7 41 10 70 11 287 89 395 141 237
116 454 290 599 481 57 76 148 115 389 169 89 20 195 45 235 56 40 11 81 22
90 24 28 5 195 71 243 95 217 111 354 287 394 505 16 87 20 578 5 654 -34 178
-165 298 -370 337 -119 23 -408 -5 -490 -47 -13 -6 -16 0 -15 34 0 23 -5 66
-11 95 -7 28 -10 52 -8 52 3 0 0 8 -5 18 -6 11 -12 31 -15 46 -3 15 -25 69
-49 119 -179 369 -598 668 -1158 827 -132 37 -351 81 -474 94 -27 3 -70 9 -95
12 -43 6 -497 13 -502 9z m2840 -1669 c75 -18 182 -64 183 -80 8 -84 2 -397
-9 -456 -44 -253 -215 -398 -583 -495 -57 -15 -115 -29 -129 -32 -36 -6 -147
-31 -212 -47 -62 -14 -70 -9 -45 29 8 11 28 56 46 100 18 44 38 94 46 110 34
78 103 321 124 440 6 33 13 69 15 80 5 29 21 157 31 254 3 24 7 46 9 48 7 7
115 34 191 48 67 13 284 13 333 1z"/>
</g>
</svg>
